<svg xmlns="http://www.w3.org/2000/svg" width="311" height="244" viewBox="0 0 311 244"><title>PoliticasPublicas_Fundo</title><g id="33120c93-9516-4300-b229-82919ff3df5a" data-name="Camada 1"><text transform="translate(112.3 16.29)" font-size="16" fill="#231f20" font-family="OpenSans, Open Sans">Identificar <tspan x="-2.48" y="20">problemas</tspan></text><text transform="translate(203.73 67.29)" font-size="16" fill="#231f20" font-family="OpenSans, Open Sans">Formação <tspan x="-1.84" y="20">de agenda</tspan></text><text transform="translate(195.33 156.54)" font-size="16" fill="#231f20" font-family="OpenSans, Open Sans">Formulação de <tspan x="12.08" y="20">alternativas</tspan></text><text transform="translate(113.97 220.54)" font-size="16" fill="#231f20" font-family="OpenSans, Open Sans">Tomada de <tspan x="13.65" y="20">decisão</tspan></text><text transform="translate(1.65 195.04)" font-size="16" fill="#231f20" font-family="OpenSans, Open Sans">Implementação</text><text transform="translate(11.83 127.81)" font-size="16" fill="#231f20" font-family="OpenSans, Open Sans">Avaliação</text><text transform="translate(29.45 60.29)" font-size="16" fill="#231f20" font-family="OpenSans, Open Sans">Extinção</text><path d="M199.91,23a18.52,18.52,0,0,1,7.53,1.17c2.45.78,4.51,2.4,6.61,3.78,1,.7,2.14,1.31,3.23,2l1.65,1c.54.33,1.07.69,1.59,1.06a34.33,34.33,0,0,1,5.64,5.15l-1.61,1.4c-.43-.44-.83-.89-1.25-1.34s-.78-.94-1.23-1.36c-.86-.87-1.69-1.78-2.59-2.61a23.77,23.77,0,0,0-5.75-4.66c-.55-.28-1.12-.54-1.69-.78s-1.18-.41-1.76-.62c-1.18-.38-2.32-.82-3.45-1.27-2.27-.92-4.56-1.76-6.93-2.63Z" fill="#01837d"/><polygon points="231.1 45.87 218.26 38.02 224.8 37.31 227.43 31.28 231.1 45.87" fill="#01837d"/><path d="M259.07,97.86a19.09,19.09,0,0,1,3.87,6.8c.93,2.47,1,5.16,1.21,7.72.09.64.13,1.28.22,1.92s.2,1.28.27,1.92l.28,1.94c.08.65.12,1.3.16,2a35.05,35.05,0,0,1-.56,7.82l-2.08-.39c.14-1.25.41-2.48.58-3.72s.35-2.49.43-3.75a25,25,0,0,0,.07-7.61q-.19-.94-.44-1.86c-.19-.61-.42-1.21-.62-1.81-.45-1.19-.83-2.38-1.19-3.59-.72-2.41-1.52-4.78-2.35-7.24Z" fill="#01837d"/><polygon points="260.77 137.25 258.9 122.32 263.53 126.99 269.89 125.28 260.77 137.25" fill="#01837d"/><path d="M245.52,193.16a18.52,18.52,0,0,1-2.47,7.21c-1.2,2.27-3.15,4-4.88,5.84-.87.91-1.67,1.88-2.5,2.83l-1.23,1.45c-.42.48-.87.93-1.32,1.38a34.32,34.32,0,0,1-6.06,4.65l-1.1-1.83c.51-.34,1-.66,1.54-1s1.06-.61,1.55-1c1-.69,2-1.35,3-2.1a23.78,23.78,0,0,0,5.6-4.85c.37-.5.73-1,1.07-1.53s.61-1.09.92-1.62c.58-1.09,1.21-2.14,1.86-3.18,1.3-2.07,2.53-4.18,3.81-6.36Z" fill="#01837d"/><polygon points="217.58 219.87 227.55 208.6 227.1 215.16 232.59 218.81 217.58 219.87" fill="#01837d"/><path d="M105.24,226.22a18.52,18.52,0,0,1-7.61-.35c-2.52-.51-4.75-1.89-7-3-1.12-.58-2.27-1.07-3.42-1.6l-1.74-.78c-.58-.27-1.14-.57-1.69-.88A34.32,34.32,0,0,1,77.63,215l1.44-1.56c.47.39.92.8,1.39,1.2s.88.85,1.37,1.22c.95.77,1.87,1.59,2.86,2.31a23.77,23.77,0,0,0,6.22,4c.58.22,1.17.42,1.76.6s1.21.28,1.81.43c1.21.25,2.39.56,3.57.89,2.36.67,4.72,1.26,7.17,1.87Z" fill="#01837d"/><polygon points="71.77 206.88 85.38 213.3 78.95 214.71 76.99 220.99 71.77 206.88" fill="#01837d"/><path d="M47.07,176.72a19.63,19.63,0,0,1-5.1-6c-1.38-2.27-1.93-4.93-2.67-7.42-.21-.62-.38-1.25-.59-1.86s-.45-1.23-.65-1.85A32.3,32.3,0,0,1,36,147.9l2.11,0c.1,1.27.08,2.53.15,3.8s.14,2.54.31,3.8a25.59,25.59,0,0,0,1.4,7.56q.36.9.79,1.76l1,1.68c.67,1.1,1.28,2.21,1.87,3.33,1.17,2.26,2.41,4.46,3.68,6.75Z" fill="#01837d"/><polygon points="37.87 138.04 42.54 152.35 37.1 148.64 31.19 151.52 37.87 138.04" fill="#01837d"/><path d="M37,106.66A18.54,18.54,0,0,1,36,99c.08-2.61,1.1-5.08,1.86-7.51.17-.62.38-1.22.54-1.84s.31-1.24.5-1.86l.49-1.87c.18-.62.39-1.23.61-1.84a35,35,0,0,1,3.53-6.92L45.3,78.3c-.62,1.08-1.33,2.1-2,3.17S42,83.6,41.49,84.72a24.48,24.48,0,0,0-3,6.91q-.19.93-.31,1.87c-.07.63-.08,1.26-.13,1.89-.05,1.26-.16,2.49-.28,3.73-.26,2.48-.44,4.94-.6,7.51Z" fill="#01837d"/><polygon points="50.61 70 46.53 84.48 44.08 78.38 37.56 77.48 50.61 70" fill="#01837d"/></g></svg>