<svg xmlns="http://www.w3.org/2000/svg" width="736" height="294" viewBox="0 0 736 294"><title>PoliticasPublicas_Fundo</title><g id="ba37066a-5236-4a0f-b62e-f987a51da446" data-name="Camada 1"><text transform="translate(323.3 23.29)" font-size="16" fill="#231f20" font-family="OpenSans, Open Sans">Identificar <tspan x="-2.48" y="21">problemas</tspan></text><text transform="translate(559.73 106.29)" font-size="16" fill="#231f20" font-family="OpenSans, Open Sans">Formação <tspan x="-1.84" y="21">de agenda</tspan></text><text transform="translate(617.33 184.54)" font-size="16" fill="#231f20" font-family="OpenSans, Open Sans">Formulação de <tspan x="12.08" y="21">alternativas</tspan></text><text transform="translate(416.97 263.54)" font-size="16" fill="#231f20" font-family="OpenSans, Open Sans">Tomada de <tspan x="13.65" y="21">decisão</tspan></text><text transform="translate(193.65 274.04)" font-size="16" fill="#231f20" font-family="OpenSans, Open Sans">Implementação</text><text transform="translate(8.83 183.04)" font-size="16" fill="#231f20" font-family="OpenSans, Open Sans">Avaliação</text><text transform="translate(144.45 54.29)" font-size="16" fill="#231f20" font-family="OpenSans, Open Sans">Extinção</text><path d="M411,25.4c8-.91,16-1.36,24-1.67s16-.33,24-.06,16,.91,24,1.63l12,1.11c4,.38,8,.86,11.94,1.32,15.9,1.89,31.81,5,46.78,11.17a84.09,84.09,0,0,1,10.84,5.46,57.23,57.23,0,0,1,9.77,7.27,41.1,41.1,0,0,1,7.67,9.48A33.85,33.85,0,0,1,586,72.55l-.86.16c-1.6-7.79-6.19-14.6-12.08-19.75s-13-9-20.22-12.11a151.91,151.91,0,0,0-22.63-7.43q-11.59-2.92-23.45-4.8c-7.89-1.25-15.85-2.11-23.83-2.59s-16-.56-24-.64q-24-.39-48,.21Z" fill="#01837d"/><polygon points="586 82.5 579.45 68.96 585.33 71.9 590.8 68.24 586 82.5" fill="#01837d"/><path d="M649,110.9a38.71,38.71,0,0,1,16.27.11,34.65,34.65,0,0,1,7.71,2.8,56.64,56.64,0,0,1,7,4.11,37.81,37.81,0,0,1,6.24,5.32,30.67,30.67,0,0,1,4.62,6.86A38.78,38.78,0,0,1,694.73,146l-1.62.13a58.31,58.31,0,0,0-4-15.23,33.38,33.38,0,0,0-9.48-12.48,24.18,24.18,0,0,0-7-3.73,59.64,59.64,0,0,0-7.7-2A82.92,82.92,0,0,0,649,111.1Z" fill="#01837d"/><polygon points="694 156 688.03 142.19 693.79 145.38 699.41 141.96 694 156" fill="#01837d"/><path d="M673.09,220a28.08,28.08,0,0,1-1.23,21.28,31.66,31.66,0,0,1-6.34,8.94c-.32.33-.62.68-1,1l-1,.9c-.69.59-1.37,1.22-2.09,1.78l-2.23,1.58-1.12.79c-.38.24-.79.46-1.18.69a80.43,80.43,0,0,1-20.09,8,214.18,214.18,0,0,1-21.11,4.31c-14.2,2.3-28.63,2.83-43,2.66-7.18-.21-14.37-.46-21.52-1.12-7.17-.46-14.29-1.4-21.42-2.21l.09-.93,10.72.68c1.79.12,3.57.28,5.36.37l5.36.26,5.36.26c1.78.12,3.57.18,5.36.22l10.72.34,10.72.15,10.72-.17c3.57-.1,7.14-.35,10.71-.46,3.56-.3,7.13-.51,10.68-.93s7.1-.89,10.6-1.64a101.72,101.72,0,0,0,10.42-2.51A82.75,82.75,0,0,0,656,255.43c.37-.23.76-.45,1.13-.69l1.07-.77,2.15-1.54c.69-.54,1.33-1.14,2-1.7l1-.85c.33-.28.62-.62.93-.93.6-.63,1.23-1.25,1.82-1.89l1.63-2.05a8,8,0,0,0,.76-1.06l.71-1.1c.23-.37.5-.72.69-1.11l.6-1.16A29.34,29.34,0,0,0,672.91,220Z" fill="#01837d"/><polygon points="520 267 534.44 262.77 530.57 268.1 533.27 274.1 520 267" fill="#01837d"/><path d="M400,266.1a134.29,134.29,0,0,1-15.78.79c-5.26-.07-10.52-.77-15.78-.56-2.63.07-5.26.24-7.89.39s-5.26.2-7.89.26c-5.26.18-10.52.09-15.78-.16v-1.65c5.26-.24,10.52-.33,15.78-.16,2.63.06,5.26.1,7.89.26s5.26.33,7.89.39c5.26.21,10.52-.5,15.78-.56a134.29,134.29,0,0,1,15.78.79Z" fill="#01837d"/><polygon points="327 266 340.93 260.31 337.62 266 340.93 271.69 327 266" fill="#01837d"/><path d="M176,269.1a170.56,170.56,0,0,1-20.09,2,192.92,192.92,0,0,1-20.2-.2,192.61,192.61,0,0,1-20-2.58c-6.62-1.18-13.22-2.52-19.71-4.36a95.57,95.57,0,0,1-18.9-7.26,65.59,65.59,0,0,1-16.42-12,50.35,50.35,0,0,1-10.91-17.24,59.78,59.78,0,0,1-2.66-9.86,70.11,70.11,0,0,1-.86-10.13l1,0a62.92,62.92,0,0,0,4.28,19.34,53.86,53.86,0,0,0,10.72,16.44,65.92,65.92,0,0,0,15.71,12,102.17,102.17,0,0,0,18.33,7.95,115.21,115.21,0,0,0,19.57,4.45c6.64.9,13.34,1.31,20,1.6A373.54,373.54,0,0,0,176,268.9Z" fill="#01837d"/><polygon points="47 197.5 52.41 211.54 46.78 208.12 41.03 211.31 47 197.5" fill="#01837d"/><path d="M40.9,155.52a95.65,95.65,0,0,1-2.74-18.9,99.14,99.14,0,0,1,.92-19.13A86.64,86.64,0,0,1,44.14,99a84.57,84.57,0,0,1,8.8-16.94A64.91,64.91,0,0,1,66,68.11l1.91-1.47a19.71,19.71,0,0,1,2-1.4L74,62.67a22,22,0,0,1,2.12-1.15l2.15-1.1,2.15-1.1c.73-.33,1.48-.62,2.23-.92l4.48-1.78c1.53-.49,3.07-.94,4.61-1.39L94,54.56c.77-.23,1.56-.35,2.34-.53l4.7-1,1.18-.24,1.19-.16,2.38-.31,4.75-.62c3.18-.23,6.37-.35,9.55-.53l0,1-9.42,1.05-4.67.78-2.33.39-1.16.2-1.15.28L96.83,56c-.76.19-1.54.32-2.29.56l-2.25.71-4.49,1.4-4.37,1.73c-.72.3-1.47.55-2.18.86l-2.11,1-2.11,1a21,21,0,0,0-2.08,1.08l-4,2.42A18.82,18.82,0,0,0,69,68.1l-1.91,1.37A67.34,67.34,0,0,0,53.65,82.61a62.11,62.11,0,0,0-8.79,16.7,92.41,92.41,0,0,0-4.06,18.43,134.41,134.41,0,0,0-1.13,18.84,138.71,138.71,0,0,0,1.42,18.9Z" fill="#01837d"/><polygon points="130 51.5 116.22 57.55 119.38 51.77 115.93 46.17 130 51.5" fill="#01837d"/></g></svg>