<svg xmlns="http://www.w3.org/2000/svg" width="178" height="53" viewBox="0 0 178 53"><title>PoliticasPublicas_Fundo</title><g id="7f7c164d-3c9e-4dbf-a3d4-73235c3bdcd6" data-name="Camada 1"><path id="19cb34fb-f60c-4191-8a5a-b038f03b699a" data-name="&lt;Path&gt;" d="M76.27,44.52A4.72,4.72,0,0,0,81,49.23h7.09a4.66,4.66,0,0,0,4.66-4.66V28.9H76.27Z" fill="#c9f5e6"/><circle id="d3a95c7b-9b77-415f-92d0-de7e59cd6ee7" data-name="&lt;Path&gt;" cx="112.06" cy="36.24" r="12.99" fill="#c9f5e6"/><circle id="e3149e2c-2548-4647-9891-09052910bfc0" data-name="&lt;Path&gt;" cx="161.01" cy="36.24" r="12.99" fill="#c9f5e6"/><path id="b65b21a7-fe15-493c-903e-a85b6c565a04" data-name="&lt;Compound Path&gt;" d="M86.39,48.92H79.3a5.73,5.73,0,0,1-5.72-5.72V27.58a1,1,0,0,1,1-1H91a1,1,0,0,1,1,1V43.26A5.67,5.67,0,0,1,86.39,48.92ZM75.59,28.59V43.2a3.71,3.71,0,0,0,3.71,3.71h7.09A3.65,3.65,0,0,0,90,43.26V28.59Z" fill="#4d4d4d"/><path id="8b034d84-9ded-4aee-b189-b12ffeca0286" data-name="&lt;Compound Path&gt;" d="M78.66,45.63a1.42,1.42,0,0,1-1.42-1.42V31.11a1.42,1.42,0,0,1,2.83,0v13.1A1.42,1.42,0,0,1,78.66,45.63Zm0-14.78a.26.26,0,0,0-.26.26v13.1a.26.26,0,1,0,.53,0V31.11A.26.26,0,0,0,78.66,30.85Z" fill="#4d4d4d"/><path id="83b298d1-5733-432b-a2f4-cc20eaf63510" data-name="&lt;Compound Path&gt;" d="M82.89,45.63a1.42,1.42,0,0,1-1.42-1.42V31.11a1.42,1.42,0,0,1,2.83,0v13.1A1.42,1.42,0,0,1,82.89,45.63Zm0-14.78a.26.26,0,0,0-.26.26v13.1a.26.26,0,0,0,.53,0V31.11A.26.26,0,0,0,82.89,30.85Z" fill="#4d4d4d"/><path id="a9beda17-daef-4aae-a0f1-47ae3a42b8ef" data-name="&lt;Compound Path&gt;" d="M87.13,45.63a1.42,1.42,0,0,1-1.42-1.42V31.11a1.42,1.42,0,0,1,2.83,0v13.1A1.42,1.42,0,0,1,87.13,45.63Zm0-14.78a.26.26,0,0,0-.26.26v13.1a.26.26,0,1,0,.53,0V31.11A.26.26,0,0,0,87.13,30.85Z" fill="#4d4d4d"/><path id="555e4d4d-6624-46c9-a2a3-8e5b3cf828f6" data-name="&lt;Compound Path&gt;" d="M90.33,28.59h-15a2.51,2.51,0,1,1,0-5h15a2.51,2.51,0,0,1,0,5Zm-15-3a.5.5,0,1,0,0,1h15a.5.5,0,0,0,0-1Z" fill="#4d4d4d"/><path id="4421997e-0f64-4e63-9bc9-5e2ea9c3ff13" data-name="&lt;Path&gt;" d="M85.75,25.17a.72.72,0,0,1-.72-.72v-1.1c0-.3-.17-.49-.29-.49h-3.9c-.1,0-.24.18-.24.44v1.15a.72.72,0,1,1-1.44,0V23.3a1.79,1.79,0,0,1,1.68-1.88h3.9a1.84,1.84,0,0,1,1.73,1.93v1.1A.72.72,0,0,1,85.75,25.17Z" fill="#4d4d4d"/><path id="397b8776-1cd6-4b3d-80a8-f2b4479d5021" data-name="&lt;Compound Path&gt;" d="M68.32,11.41H7.41a1,1,0,0,1-1-1v-4a1,1,0,0,1,1-1H68.32a1,1,0,0,1,1,1v4A1,1,0,0,1,68.32,11.41Zm-59.9-2H67.31v-2H8.42Z" fill="#4d4d4d"/><path id="0e1f806a-423d-4840-90a9-34903a90dc64" data-name="&lt;Compound Path&gt;" d="M68.32,18H7.41a1,1,0,0,1-1-1v-4a1,1,0,0,1,1-1H68.32a1,1,0,0,1,1,1v4A1,1,0,0,1,68.32,18Zm-59.9-2H67.31V14H8.42Z" fill="#4d4d4d"/><path id="61887f31-a290-452e-b95b-f33306be9492" data-name="&lt;Compound Path&gt;" d="M68.32,24.5H7.41a1,1,0,0,1-1-1v-4a1,1,0,0,1,1-1H68.32a1,1,0,0,1,1,1v4A1,1,0,0,1,68.32,24.5Zm-59.9-2H67.31v-2H8.42Z" fill="#4d4d4d"/><path id="a29ae815-ca6b-4424-835a-6c6ec7ad8885" data-name="&lt;Compound Path&gt;" d="M70.17,36.29H5.56a1,1,0,0,1-1-1V28.9a1,1,0,0,1,1-1H70.17a1,1,0,0,1,1,1v6.38A1,1,0,0,1,70.17,36.29Zm-63.61-2h62.6V29.91H6.56Z" fill="#4d4d4d"/><path id="5e26c41e-ad2c-4f53-983c-83ab63228eab" data-name="&lt;Compound Path&gt;" d="M21.78,47.49H17.84a1,1,0,0,1-1-1V35.28a1,1,0,0,1,1-1h3.93a1,1,0,0,1,1,1v11.2A1,1,0,0,1,21.78,47.49Zm-2.93-2h1.92V36.29H18.85Z" fill="#4d4d4d"/><path id="4e39781b-65eb-464c-abcd-868a1455ded3" data-name="&lt;Compound Path&gt;" d="M57.88,47.49H53.95a1,1,0,0,1-1-1V35.28a1,1,0,0,1,1-1h3.93a1,1,0,0,1,1,1v11.2A1,1,0,0,1,57.88,47.49Zm-2.93-2h1.92V36.29H55Z" fill="#4d4d4d"/><path id="cf56ea62-a89a-4c4e-a24b-233d7e7607a7" data-name="&lt;Compound Path&gt;" d="M24.72,13.53H21.78a.58.58,0,0,1-.58-.58V10.4a.58.58,0,0,1,.58-.58h2.94a.58.58,0,0,1,.58.58v2.54A.58.58,0,0,1,24.72,13.53Zm-2.36-1.15h1.79V11H22.35Z" fill="#4d4d4d"/><path id="0704abb1-a415-45a4-96cf-ca7e532c2d55" data-name="&lt;Compound Path&gt;" d="M53.95,13.53H51a.58.58,0,0,1-.58-.58V10.4A.58.58,0,0,1,51,9.83h2.94a.58.58,0,0,1,.58.58v2.54A.58.58,0,0,1,53.95,13.53Zm-2.36-1.15h1.79V11H51.58Z" fill="#4d4d4d"/><path id="6c0091b2-a6d3-4058-8c78-1d302cb89d93" data-name="&lt;Compound Path&gt;" d="M24.72,20.07H21.78a.58.58,0,0,1-.58-.58V17.35a.58.58,0,0,1,.58-.58h2.94a.58.58,0,0,1,.58.58V19.5A.58.58,0,0,1,24.72,20.07Zm-2.36-1.15h1.79v-1H22.35Z" fill="#4d4d4d"/><path id="3789cb5e-fa5c-4640-8e71-11ad714f46ea" data-name="&lt;Compound Path&gt;" d="M53.95,20.07H51a.58.58,0,0,1-.58-.58V17.35a.58.58,0,0,1,.58-.58h2.94a.58.58,0,0,1,.58.58V19.5A.58.58,0,0,1,53.95,20.07Zm-2.36-1.15h1.79v-1H51.58Z" fill="#4d4d4d"/><path id="e1b585dc-2c3e-4dba-b3f3-48eedb23635e" data-name="&lt;Compound Path&gt;" d="M24.72,29.48H21.78a.58.58,0,0,1-.58-.58V23.5a.58.58,0,0,1,.58-.58h2.94a.58.58,0,0,1,.58.58V28.9A.58.58,0,0,1,24.72,29.48Zm-2.36-1.15h1.79V24.07H22.35Z" fill="#4d4d4d"/><path id="09678f37-7b76-4853-81a3-801025d0b8d5" data-name="&lt;Compound Path&gt;" d="M53.95,29.48H51a.58.58,0,0,1-.58-.58V23.5a.58.58,0,0,1,.58-.58h2.94a.58.58,0,0,1,.58.58V28.9A.58.58,0,0,1,53.95,29.48Zm-2.36-1.15h1.79V24.07H51.58Z" fill="#4d4d4d"/><path id="b2255bf6-e127-49e2-8faa-b58679146570" data-name="&lt;Compound Path&gt;" d="M109.78,49.12a14,14,0,1,1,14-14A14,14,0,0,1,109.78,49.12Zm0-26a12,12,0,1,0,12,12A12,12,0,0,0,109.78,23.13Z" fill="#4d4d4d"/><path id="d5fa0191-735e-492d-ad19-e82888aba744" data-name="&lt;Compound Path&gt;" d="M158.73,49.12a14,14,0,1,1,14-14A14,14,0,0,1,158.73,49.12Zm0-26a12,12,0,1,0,12,12A12,12,0,0,0,158.73,23.13Z" fill="#4d4d4d"/><path id="6337109a-58bb-472f-a7a1-7ca74b85739f" data-name="&lt;Compound Path&gt;" d="M109.78,36.13a1,1,0,0,1-.88-1.49l13-23.93a1,1,0,0,1,.12-.18l.12-.12a1,1,0,0,1,.64-.24h25.52a1,1,0,0,1,.92.6l10.46,23.94a1,1,0,0,1-.92,1.41H133.21a1,1,0,0,1-.92-.6l-9.61-22.05-12,22.13A1,1,0,0,1,109.78,36.13Zm24.09-2h23.32l-9.58-21.93h-23.3Z" fill="#4d4d4d"/><path id="247be27f-802c-40ec-8c8f-3665af6ee3c4" data-name="&lt;Compound Path&gt;" d="M151.36,12h-8.75a1.77,1.77,0,0,1-1.76-1.76V8.41a1.77,1.77,0,0,1,1.76-1.76h8.75a1.77,1.77,0,0,1,1.76,1.76v1.81A1.77,1.77,0,0,1,151.36,12Zm-8.5-2h8.25V8.66h-8.25Z" fill="#4d4d4d"/><path id="50661160-f96e-4e28-9299-36a2df09e272" data-name="&lt;Path&gt;" d="M122.77,12.18a1,1,0,0,1-1-1V6.94h-6.88a1,1,0,0,1,0-2h7.88a1,1,0,0,1,1,1v5.24A1,1,0,0,1,122.77,12.18Z" fill="#4d4d4d"/></g></svg>